<mxfile host="Electron" agent="Mozilla/5.0 (Windows NT 10.0; Win64; x64) AppleWebKit/537.36 (KHTML, like Gecko) draw.io/24.7.17 Chrome/128.0.6613.36 Electron/32.0.1 Safari/537.36" version="24.7.17">
  <diagram name="第 1 页" id="F2hV8SEWD4lgGmumxjRF">
    <mxGraphModel dx="1690" dy="629" grid="0" gridSize="10" guides="1" tooltips="1" connect="1" arrows="0" fold="1" page="0" pageScale="1" pageWidth="1169" pageHeight="827" math="0" shadow="0">
      <root>
        <mxCell id="0" />
        <mxCell id="1" parent="0" />
        <mxCell id="-4jC8JnQ5iPbDwWOIHU0-1" value="" style="image;sketch=0;aspect=fixed;html=1;points=[];align=center;fontSize=16;image=img/lib/mscae/Cache_Redis_Product.svg;fontStyle=1" vertex="1" parent="1">
          <mxGeometry x="532" y="383" width="95.23" height="80" as="geometry" />
        </mxCell>
        <mxCell id="-4jC8JnQ5iPbDwWOIHU0-4" value="" style="image;aspect=fixed;perimeter=ellipsePerimeter;html=1;align=center;shadow=0;dashed=0;fontColor=#4277BB;labelBackgroundColor=default;fontSize=16;spacingTop=3;image=img/lib/ibm/infrastructure/mobile_backend.svg;fontStyle=1" vertex="1" parent="1">
          <mxGeometry x="700" y="45" width="110" height="110" as="geometry" />
        </mxCell>
        <mxCell id="-4jC8JnQ5iPbDwWOIHU0-5" value="" style="image;aspect=fixed;html=1;points=[];align=center;fontSize=16;image=img/lib/azure2/general/Browser.svg;fontStyle=1" vertex="1" parent="1">
          <mxGeometry x="60" y="35" width="150" height="120" as="geometry" />
        </mxCell>
        <mxCell id="-4jC8JnQ5iPbDwWOIHU0-6" value="Front-End" style="text;html=1;align=center;verticalAlign=middle;resizable=0;points=[];autosize=1;strokeColor=none;fillColor=none;fontSize=16;fontStyle=1" vertex="1" parent="1">
          <mxGeometry x="-40" y="80" width="90" height="30" as="geometry" />
        </mxCell>
        <mxCell id="-4jC8JnQ5iPbDwWOIHU0-7" value="Back-End" style="text;html=1;align=center;verticalAlign=middle;resizable=0;points=[];autosize=1;strokeColor=none;fillColor=none;fontSize=16;fontStyle=1" vertex="1" parent="1">
          <mxGeometry x="850" y="90" width="90" height="30" as="geometry" />
        </mxCell>
        <mxCell id="-4jC8JnQ5iPbDwWOIHU0-8" value="Redis Cache" style="text;html=1;align=center;verticalAlign=middle;resizable=0;points=[];autosize=1;strokeColor=none;fillColor=none;fontSize=16;fontStyle=1" vertex="1" parent="1">
          <mxGeometry x="526" y="472.5" width="120" height="30" as="geometry" />
        </mxCell>
        <mxCell id="-4jC8JnQ5iPbDwWOIHU0-10" value="" style="shape=flexArrow;endArrow=classic;html=1;rounded=0;fontSize=16;fontStyle=1;fillColor=#d5e8d4;strokeColor=#82b366;" edge="1" parent="1">
          <mxGeometry width="50" height="50" relative="1" as="geometry">
            <mxPoint x="230" y="140" as="sourcePoint" />
            <mxPoint x="690" y="140" as="targetPoint" />
          </mxGeometry>
        </mxCell>
        <mxCell id="-4jC8JnQ5iPbDwWOIHU0-11" value="Partial User Information" style="text;html=1;align=center;verticalAlign=middle;resizable=0;points=[];autosize=1;strokeColor=#82b366;fillColor=#d5e8d4;fontSize=16;fontStyle=1" vertex="1" parent="1">
          <mxGeometry x="-30" y="270" width="190" height="30" as="geometry" />
        </mxCell>
        <mxCell id="-4jC8JnQ5iPbDwWOIHU0-12" value="" style="shape=flexArrow;endArrow=classic;html=1;rounded=0;dashed=1;fontSize=16;fontStyle=1;fillColor=#d5e8d4;strokeColor=#82b366;" edge="1" parent="1">
          <mxGeometry width="50" height="50" relative="1" as="geometry">
            <mxPoint x="730" y="160" as="sourcePoint" />
            <mxPoint x="600" y="340" as="targetPoint" />
          </mxGeometry>
        </mxCell>
        <mxCell id="-4jC8JnQ5iPbDwWOIHU0-13" value="" style="shape=flexArrow;endArrow=classic;html=1;rounded=0;dashed=1;strokeColor=#82b366;fontSize=16;fontStyle=1;fillColor=#d5e8d4;" edge="1" parent="1">
          <mxGeometry width="50" height="50" relative="1" as="geometry">
            <mxPoint x="530" y="360" as="sourcePoint" />
            <mxPoint x="220" y="190" as="targetPoint" />
          </mxGeometry>
        </mxCell>
        <mxCell id="-4jC8JnQ5iPbDwWOIHU0-14" value="" style="shape=flexArrow;endArrow=classic;html=1;rounded=0;fontSize=16;fontStyle=1;fillColor=#fff2cc;strokeColor=#d6b656;" edge="1" parent="1">
          <mxGeometry width="50" height="50" relative="1" as="geometry">
            <mxPoint x="190" y="200" as="sourcePoint" />
            <mxPoint x="520" y="400" as="targetPoint" />
          </mxGeometry>
        </mxCell>
        <mxCell id="-4jC8JnQ5iPbDwWOIHU0-15" value="" style="shape=flexArrow;endArrow=classic;html=1;rounded=0;fontSize=16;fontStyle=1;fillColor=#f8cecc;strokeColor=#b85450;" edge="1" parent="1">
          <mxGeometry width="50" height="50" relative="1" as="geometry">
            <mxPoint x="623.33" y="360" as="sourcePoint" />
            <mxPoint x="753.33" y="170" as="targetPoint" />
          </mxGeometry>
        </mxCell>
        <mxCell id="-4jC8JnQ5iPbDwWOIHU0-16" value="" style="shape=flexArrow;endArrow=classic;html=1;rounded=0;fontSize=16;fontStyle=1;fillColor=#fff2cc;strokeColor=#d6b656;" edge="1" parent="1">
          <mxGeometry width="50" height="50" relative="1" as="geometry">
            <mxPoint x="680" y="100" as="sourcePoint" />
            <mxPoint x="230" y="110" as="targetPoint" />
          </mxGeometry>
        </mxCell>
        <mxCell id="-4jC8JnQ5iPbDwWOIHU0-17" value="" style="shape=flexArrow;endArrow=classic;html=1;rounded=0;fontSize=16;fontStyle=1;fillColor=#f8cecc;strokeColor=#b85450;" edge="1" parent="1">
          <mxGeometry width="50" height="50" relative="1" as="geometry">
            <mxPoint x="180" y="190" as="sourcePoint" />
            <mxPoint x="530" y="450" as="targetPoint" />
          </mxGeometry>
        </mxCell>
        <mxCell id="-4jC8JnQ5iPbDwWOIHU0-19" value="" style="curved=1;endArrow=classic;html=1;rounded=0;strokeWidth=5;fontSize=16;fontStyle=1;fillColor=#fff2cc;strokeColor=#d6b656;" edge="1" parent="1">
          <mxGeometry width="50" height="50" relative="1" as="geometry">
            <mxPoint x="640" y="417.5" as="sourcePoint" />
            <mxPoint x="760" y="167.5" as="targetPoint" />
            <Array as="points">
              <mxPoint x="790" y="377.5" />
              <mxPoint x="810" y="317.5" />
            </Array>
          </mxGeometry>
        </mxCell>
        <mxCell id="-4jC8JnQ5iPbDwWOIHU0-20" value="" style="html=1;verticalLabelPosition=bottom;align=center;labelBackgroundColor=#ffffff;verticalAlign=top;strokeWidth=2;strokeColor=#d79b00;shadow=0;dashed=0;shape=mxgraph.ios7.icons.clock;fontSize=16;fontStyle=1;fillColor=#ffe6cc;" vertex="1" parent="1">
          <mxGeometry x="710" y="300" width="70" height="70" as="geometry" />
        </mxCell>
        <mxCell id="-4jC8JnQ5iPbDwWOIHU0-21" value="" style="shape=flexArrow;endArrow=classic;html=1;rounded=0;fontSize=16;fontStyle=1;fillColor=#f8cecc;strokeColor=#b85450;" edge="1" parent="1">
          <mxGeometry width="50" height="50" relative="1" as="geometry">
            <mxPoint x="680" y="100" as="sourcePoint" />
            <mxPoint x="230" y="80" as="targetPoint" />
          </mxGeometry>
        </mxCell>
        <mxCell id="-4jC8JnQ5iPbDwWOIHU0-22" value="&lt;font style=&quot;font-size: 16px;&quot;&gt;&lt;b&gt;Non-critical update data such as page views&lt;/b&gt;&lt;/font&gt;" style="text;html=1;align=center;verticalAlign=middle;resizable=0;points=[];autosize=1;strokeColor=#d6b656;fillColor=#fff2cc;" vertex="1" parent="1">
          <mxGeometry x="-30" y="430" width="360" height="30" as="geometry" />
        </mxCell>
        <mxCell id="-4jC8JnQ5iPbDwWOIHU0-23" value="&lt;font style=&quot;font-size: 16px;&quot;&gt;&lt;b&gt;Access IP records within a unit time&lt;/b&gt;&lt;/font&gt;" style="text;html=1;align=center;verticalAlign=middle;resizable=0;points=[];autosize=1;strokeColor=#b85450;fillColor=#f8cecc;" vertex="1" parent="1">
          <mxGeometry x="-30" y="350" width="300" height="30" as="geometry" />
        </mxCell>
        <mxCell id="-4jC8JnQ5iPbDwWOIHU0-25" value="" style="whiteSpace=wrap;html=1;fillColor=#d5e8d4;strokeColor=#82b366;" vertex="1" parent="1">
          <mxGeometry x="-120" y="257.5" width="60" height="55" as="geometry" />
        </mxCell>
        <mxCell id="-4jC8JnQ5iPbDwWOIHU0-27" value="" style="whiteSpace=wrap;html=1;fillColor=#f8cecc;strokeColor=#b85450;" vertex="1" parent="1">
          <mxGeometry x="-120" y="337.5" width="60" height="55" as="geometry" />
        </mxCell>
        <mxCell id="-4jC8JnQ5iPbDwWOIHU0-28" value="" style="whiteSpace=wrap;html=1;fillColor=#fff2cc;strokeColor=#d6b656;" vertex="1" parent="1">
          <mxGeometry x="-120" y="417.5" width="60" height="55" as="geometry" />
        </mxCell>
      </root>
    </mxGraphModel>
  </diagram>
</mxfile>
